<svg width="32" height="32" viewBox="0 0 32 32" fill="none" xmlns="http://www.w3.org/2000/svg">
  <!-- Background circle -->
  <circle cx="16" cy="16" r="15" fill="#3B82F6" stroke="#1E40AF" stroke-width="2"/>
  
  <!-- Main gear -->
  <g transform="translate(16, 16)">
    <!-- Gear teeth -->
    <path d="M-8,-2 L-6,-2 L-6,-8 L-4,-8 L-4,-2 L-2,-2 L-2,2 L-4,2 L-4,8 L-6,8 L-6,2 L-8,2 Z" fill="white"/>
    <path d="M2,-8 L2,-6 L8,-6 L8,-4 L2,-4 L2,-2 L-2,-2 L-2,-4 L-8,-4 L-8,-6 L-2,-6 Z" fill="white"/>
    <path d="M8,-2 L6,-2 L6,2 L8,2 L8,6 L6,6 L6,8 L4,8 L4,6 L2,6 L2,2 L4,2 L4,-2 L6,-2 Z" fill="white"/>
    <path d="M2,8 L2,6 L-2,6 L-2,8 L-6,8 L-6,6 L-8,6 L-8,4 L-6,4 L-6,2 L-2,2 L-2,4 L2,4 Z" fill="white"/>
    
    <!-- Center circle -->
    <circle cx="0" cy="0" r="3" fill="white"/>
    <circle cx="0" cy="0" r="1.5" fill="#3B82F6"/>
  </g>
  
  <!-- Small connecting gear -->
  <g transform="translate(24, 8)">
    <circle cx="0" cy="0" r="4" fill="#10B981" stroke="#047857" stroke-width="1"/>
    <!-- Small gear teeth -->
    <rect x="-1" y="-4" width="2" height="2" fill="white"/>
    <rect x="-4" y="-1" width="2" height="2" fill="white"/>
    <rect x="2" y="-1" width="2" height="2" fill="white"/>
    <rect x="-1" y="2" width="2" height="2" fill="white"/>
    <circle cx="0" cy="0" r="1" fill="white"/>
  </g>
  
  <!-- Connection line -->
  <path d="M20 12 L24 8" stroke="#10B981" stroke-width="2" stroke-linecap="round"/>
</svg> 